<svg xmlns="http://www.w3.org/2000/svg" xmlns:xlink="http://www.w3.org/1999/xlink" viewBox="0,0,256,256" width="200px" height="200px" fill-rule="nonzero"><defs><clipPath id="clip-1"><path d="M0,256v-256h256v256zM148.82114,90.42083c-0.66414,-1.73719 -2.41779,-4.84107 -4.48979,-6.91306c-2.072,-2.072 -5.17313,-3.82565 -6.91306,-4.48979c-2.27234,-0.86722 -4.65994,-1.30906 -7.09694,-1.30906c-5.27742,0 -10.23649,2.05279 -13.96335,5.77964c-4.2867,4.2867 -5.604,9.60255 -3.85858,15.03091l-8.26604,8.26604c-4.63798,4.63798 -4.63798,12.18225 0,16.82024c2.24489,2.24764 5.23077,3.48535 8.40875,3.48535c3.17798,0 6.16385,-1.23771 8.40875,-3.4826l8.25781,-8.25781c1.55057,0.50496 3.0929,0.75745 4.61328,0.75745c2.64557,0 6.60295,-0.80136 10.42586,-4.62426c5.50246,-5.50246 7.25611,-13.7685 4.47332,-21.06303z" id="overlayBgMask" fill="none"></path></clipPath></defs><g transform=""><g fill-opacity="0.98039" fill="#20c9a5" fill-rule="nonzero" stroke="none" stroke-width="1" stroke-linecap="butt" stroke-linejoin="miter" stroke-miterlimit="10" stroke-dasharray="" stroke-dashoffset="0" font-family="none" font-weight="none" font-size="none" text-anchor="none" style="mix-blend-mode: normal"><path d="M64,256c-35.34622,0 -64,-28.65378 -64,-64v-128c0,-35.34622 28.65378,-64 64,-64h128c35.34622,0 64,28.65378 64,64v128c0,35.34622 -28.65378,64 -64,64z" id="shape"></path></g><g clip-path="url(#clip-1)" fill="none" fill-rule="nonzero" stroke="none" stroke-width="1" stroke-linecap="butt" stroke-linejoin="miter" stroke-miterlimit="10" stroke-dasharray="" stroke-dashoffset="0" font-family="none" font-weight="none" font-size="none" text-anchor="none" style="mix-blend-mode: normal"><g transform="translate(0,0.00073) scale(2.56,2.56)"><path d="M27.313,90.333h-5.041c-0.928,0 -1.681,-0.752 -1.681,-1.681c0,-0.928 0.752,-1.68 1.681,-1.68h5.041c0.927,0 1.681,-0.754 1.681,-1.681c0,-0.926 -0.754,-1.68 -1.681,-1.68h-1.68c-2.78,0 -5.042,-2.262 -5.042,-5.042c0,-2.78 2.262,-5.042 5.042,-5.042h5.041c0.928,0 1.681,0.753 1.681,1.681c0,0.928 -0.752,1.68 -1.681,1.68h-5.041c-0.927,0 -1.681,0.755 -1.681,1.681c0,0.926 0.754,1.681 1.681,1.681h1.68c2.78,0 5.042,2.261 5.042,5.041c-0.001,2.781 -2.262,5.042 -5.042,5.042z" fill="#0056cf"></path><path d="M60.084,90.333c-3.243,0 -5.882,-2.639 -5.882,-5.882v-5.041c0,-3.243 2.639,-5.882 5.882,-5.882c3.243,0 5.882,2.639 5.882,5.882v5.041c-0.001,3.244 -2.64,5.882 -5.882,5.882zM60.084,76.889c-1.39,0 -2.521,1.131 -2.521,2.521v5.041c0,1.39 1.131,2.521 2.521,2.521c1.39,0 2.521,-1.131 2.521,-2.521v-5.041c-0.001,-1.39 -1.131,-2.521 -2.521,-2.521z" fill="#0056cf"></path><path d="M47.479,90.333c-0.571,0 -1.114,-0.291 -1.426,-0.79l-2.776,-4.442l-2.776,4.442c-0.378,0.603 -1.093,0.904 -1.788,0.751c-0.695,-0.153 -1.218,-0.727 -1.306,-1.433l-1.68,-13.444c-0.115,-0.921 0.538,-1.761 1.459,-1.876c0.907,-0.117 1.76,0.537 1.875,1.459l1.094,8.752l1.696,-2.712c0.615,-0.983 2.235,-0.983 2.851,0l1.695,2.712l1.096,-8.752c0.115,-0.922 0.953,-1.576 1.875,-1.459c0.921,0.115 1.574,0.955 1.459,1.876l-1.68,13.444c-0.088,0.706 -0.611,1.279 -1.306,1.433c-0.12,0.026 -0.242,0.039 -0.362,0.039z" fill="#0056cf"></path><path d="M74.368,90.333c-0.928,0 -1.681,-0.752 -1.681,-1.681v-13.444c0,-0.928 0.752,-1.681 1.681,-1.681c0.928,0 1.68,0.753 1.68,1.681v13.444c0.001,0.929 -0.752,1.681 -1.68,1.681z" fill="#0056cf"></path><path d="M77.729,76.889h-6.722c-0.928,0 -1.681,-0.752 -1.681,-1.68c0,-0.928 0.752,-1.681 1.681,-1.681h6.722c0.928,0 1.68,0.753 1.68,1.681c0.001,0.927 -0.752,1.68 -1.68,1.68z" fill="#0056cf"></path><path d="M36.556,39.917h-15.125c0,15.778 12.791,28.57 28.569,28.57v-15.126c-7.425,0 -13.444,-6.019 -13.444,-13.444z" fill="#92ebfd"></path><path d="M50,70.167c-16.68,0 -30.25,-13.57 -30.25,-30.25c0,-0.928 0.752,-1.68 1.681,-1.68h15.125c0.928,0 1.68,0.752 1.68,1.68c0,6.487 5.277,11.764 11.764,11.764c0.928,0 1.681,0.752 1.681,1.681v15.125c0,0.927 -0.753,1.68 -1.681,1.68zM23.163,41.597c0.837,13.49 11.667,24.32 25.157,25.156v-11.804c-7,-0.777 -12.575,-6.353 -13.352,-13.352z" fill="#0ab5fd"></path><path d="M50,11.347v15.125c7.425,0 13.445,6.019 13.445,13.444h15.125c0,-15.778 -12.792,-28.569 -28.57,-28.569z" fill="#fcc18a"></path><path d="M78.57,41.597h-15.125c-0.438,0 -0.874,-0.185 -1.194,-0.487c-0.303,-0.32 -0.487,-0.757 -0.487,-1.194c-0.017,-6.47 -5.294,-11.747 -11.764,-11.763c-0.437,0 -0.874,-0.186 -1.193,-0.488c-0.303,-0.319 -0.487,-0.756 -0.487,-1.193v-15.125c0,-0.437 0.184,-0.874 0.487,-1.193c0.319,-0.303 0.756,-0.487 1.193,-0.487c6.823,0 13.276,2.218 18.637,6.42c0.353,0.269 0.571,0.672 0.622,1.109c0.067,0.454 -0.068,0.891 -0.337,1.244c-0.555,0.706 -1.663,0.84 -2.37,0.285c-4.285,-3.361 -9.428,-5.31 -14.872,-5.646v11.815c6.99,0.773 12.587,6.368 13.344,13.344h11.814c-0.202,-3.379 -1.042,-6.639 -2.47,-9.697c-0.185,-0.404 -0.202,-0.858 -0.051,-1.294c0.152,-0.42 0.454,-0.756 0.857,-0.941c0.823,-0.387 1.866,0 2.235,0.807c1.882,4.017 2.84,8.335 2.84,12.806c0,0.454 -0.168,0.874 -0.487,1.194c-0.318,0.316 -0.739,0.484 -1.192,0.484zM72.351,23.817c-0.504,0 -0.991,-0.235 -1.31,-0.639c-0.287,-0.354 -0.404,-0.79 -0.353,-1.244c0.05,-0.436 0.268,-0.84 0.621,-1.126c0.706,-0.554 1.799,-0.437 2.369,0.269c0.572,0.722 0.454,1.78 -0.269,2.369c-0.301,0.236 -0.671,0.371 -1.058,0.371z" fill="#fc801c"></path><path d="M50,53.361v15.125c15.778,0 28.57,-12.791 28.57,-28.57h-15.125c0,7.426 -6.02,13.445 -13.445,13.445z" fill="#fdb2b0"></path><path d="M50,70.167c-0.928,0 -1.68,-0.752 -1.68,-1.68v-15.126c0,-0.928 0.752,-1.681 1.68,-1.681c6.487,0 11.764,-5.277 11.764,-11.764c0,-0.928 0.752,-1.68 1.681,-1.68h15.125c0.928,0 1.68,0.752 1.68,1.68c0,16.681 -13.57,30.251 -30.25,30.251zM51.681,54.949v11.805c13.49,-0.836 24.32,-11.666 25.156,-25.156h-11.804c-0.778,6.999 -6.353,12.574 -13.352,13.351z" fill="#fd3e5f"></path><g><path d="M50,26.472v-15.125c-15.778,0 -28.569,12.791 -28.569,28.569h15.125c0,-7.424 6.019,-13.444 13.444,-13.444z" fill="#a8ffa8"></path><path d="M36.556,41.597h-15.125c-0.928,0 -1.681,-0.752 -1.681,-1.681c0,-16.68 13.57,-30.25 30.25,-30.25c0.928,0 1.681,0.753 1.681,1.681v15.125c0,0.928 -0.752,1.681 -1.681,1.681c-6.487,0 -11.764,5.277 -11.764,11.763c0,0.929 -0.752,1.681 -1.68,1.681zM23.163,38.236h11.805c0.777,-7 6.352,-12.575 13.352,-13.352v-11.804c-13.491,0.836 -24.321,11.666 -25.157,25.156z" fill="#04b46f"></path></g></g></g><g fill="#cc5de8" fill-rule="nonzero" stroke="none" stroke-width="1" stroke-linecap="butt" stroke-linejoin="miter" stroke-miterlimit="10" stroke-dasharray="" stroke-dashoffset="0" font-family="none" font-weight="none" font-size="none" text-anchor="none" style="mix-blend-mode: normal"><g transform="translate(106.23794,83.1809) scale(2.74437,2.74437)" id="overlay"><path d="M12.473,8.898c-1.442,1.442 -2.995,1.335 -4.501,0.43c-1.611,1.611 -3.853,3.853 -3.988,3.988c-0.911,0.911 -2.389,0.911 -3.3,0c-0.911,-0.911 -0.911,-2.389 0,-3.3c0.137,-0.138 2.416,-2.417 3.988,-3.988c-0.905,-1.507 -1.012,-3.06 0.43,-4.501c1.5,-1.5 3.685,-1.886 5.547,-1.175l-3.149,3.148l0.5,2.5l2.5,0.5l3.148,-3.148c0.711,1.861 0.325,4.046 -1.175,5.546z"></path></g></g></g></svg>